<svg class="icon" style="width: 1em; height: 1em;vertical-align: middle;fill: currentColor;overflow: hidden;" viewBox="0 0 1024 1024" version="1.1" xmlns="http://www.w3.org/2000/svg" p-id="1744"><path d="M96 1024V0h448v384h384v640H96z m416-544a32 32 0 0 0-32-32H192a32 32 0 0 0-32 32v96a32 32 0 0 0 32 32h288a32 32 0 0 0 32-32v-96z m352 224a32 32 0 0 0-32-32H192a32 32 0 0 0-32 32v96a32 32 0 0 0 32 32h640a32 32 0 0 0 32-32v-96z" fill="#3CC451" p-id="1745"></path><path d="M608 0l320 320H608V0z" fill="#B0E7B8" p-id="1746"></path></svg>