<svg class="icon" style="width: 1em; height: 1em;vertical-align: middle;fill: currentColor;overflow: hidden;" viewBox="0 0 1024 1024" version="1.1" xmlns="http://www.w3.org/2000/svg" p-id="1419"><path d="M974.933333 305.066667l-234.666667-256C736 44.8 731.733333 42.666667 725.333333 42.666667c-6.4 0-10.666667 2.133333-14.933333 6.4l-234.666667 256C471.466667 309.333333 469.333333 313.6 469.333333 320c0 12.8 8.533333 21.333333 21.333333 21.333333l104.533333 0c-2.133333 44.8-14.933333 157.866667-66.133333 281.6C441.6 832 283.733333 938.666667 64 938.666667c-12.8 0-21.333333 8.533333-21.333333 21.333333 0 12.8 8.533333 21.333333 21.333333 21.333333 699.733333 0 780.8-526.933333 789.333333-640l106.666667 0c12.8 0 21.333333-8.533333 21.333333-21.333333C981.333333 313.6 979.2 309.333333 974.933333 305.066667zM832 298.666667c-12.8 0-21.333333 8.533333-21.333333 21.333333l0 21.333333c-6.4 93.866667-55.466667 430.933333-443.733333 554.666667 234.666667-157.866667 268.8-467.2 273.066667-554.666667l0-21.333333c0-12.8-8.533333-21.333333-21.333333-21.333333l-78.933333 0L725.333333 96l185.6 202.666667L832 298.666667z" p-id="1420"></path></svg>