<svg class="icon" style="width: 1em; height: 1em;vertical-align: middle;fill: currentColor;overflow: hidden;" viewBox="0 0 1024 1024" version="1.1" xmlns="http://www.w3.org/2000/svg" p-id="2369"><path d="M753.7152 242.1248H382.9248c-84.8384 0-153.6 68.7616-153.6 153.6v370.7392c0 84.8384 68.7616 153.6 153.6 153.6h370.7392c84.8384 0 153.6-68.7616 153.6-153.6V395.7248c0.0512-84.8384-68.7104-153.6-153.5488-153.6z m-61.3888 400.9984l-166.8608 96.3584c-11.2128 6.4512-23.5008 9.728-35.7888 9.728-12.288 0-24.576-3.2256-35.7888-9.728-22.4256-12.9536-35.7888-36.1472-35.7888-62.0032V484.7616c0-25.9072 13.3632-49.0496 35.7888-62.0032 22.4256-12.9536 49.2032-12.9536 71.6288 0l166.8608 96.3584c22.4256 12.9536 35.7888 36.1472 35.7888 62.0032-0.0512 25.856-13.4144 49.0496-35.84 62.0032z" fill="#ffe048" p-id="2370"></path><path d="M668.4672 560.4352L501.6064 464.0768c-4.2496-2.4576-8.2944-3.2768-11.8272-3.2768-5.5296 0-9.8816 2.048-12.032 3.2768-3.584 2.048-11.9296 8.2432-11.9296 20.6848v192.6656c0 12.4416 8.3456 18.5856 11.9296 20.6848 3.584 2.048 13.1072 6.1952 23.8592 0l166.8608-96.3584c10.752-6.1952 11.9296-16.5376 11.9296-20.6848s-1.1776-14.4384-11.9296-20.6336z" fill="#ffe048" p-id="2371"></path><path d="M666.6752 873.984H357.3248c-112.9472 0-204.8-91.8528-204.8-204.8V359.8848c0-112.9472 91.8528-204.8 204.8-204.8h309.2992c112.9472 0 204.8 91.8528 204.8 204.8v309.2992c0.0512 112.9472-91.8528 204.8-204.7488 204.8zM357.3248 196.0448c-90.3168 0-163.84 73.5232-163.84 163.84v309.2992c0 90.3168 73.5232 163.84 163.84 163.84h309.2992c90.3168 0 163.84-73.5232 163.84-163.84V359.8848c0-90.3168-73.5232-163.84-163.84-163.84H357.3248z" fill="#55524F" p-id="2372"></path><path d="M436.7872 676.6592c-12.288 0-24.6272-3.2256-35.84-9.728-22.4256-12.9536-35.84-36.1472-35.84-62.1056V424.192c0-25.9072 13.4144-49.1008 35.84-62.0544 22.4256-12.9536 49.2544-12.9536 71.68 0l156.4672 90.368c22.4256 12.9536 35.84 36.1472 35.84 62.0544s-13.4144 49.1008-35.84 62.0544l-156.4672 90.368a71.64928 71.64928 0 0 1-35.84 9.6768z m0-283.2384c-5.2736 0-10.5472 1.3824-15.36 4.1472-9.6256 5.5296-15.36 15.5136-15.36 26.624v180.6848c0 11.1104 5.7344 21.0432 15.36 26.624s21.0944 5.5296 30.72 0l156.4672-90.368c9.6256-5.5296 15.36-15.5136 15.36-26.624s-5.7344-21.0432-15.36-26.624L452.1472 397.568a30.7712 30.7712 0 0 0-15.36-4.1472z" fill="#55524F" p-id="2373"></path></svg>